PathFileType	4	(X/Y/Z)	s11c0202.trc
DataRate	CameraRate	NumFrames	NumMarkers	Units	OrigDataRate	OrigDataStartFrame	OrigNumFrames
200	200	4	48	mm	200	750	2000
Frame#	Time	racr			lacr			c7			jug			rlel			rdr			llel			ldr			s2			lic			ric			lasi			rasi			rpsi			lpsi			rgt			lgt			rth1			rth2			rth3			rth4			rlfc			rmfc			rsh1			rsh2			rsh3			rsh4			rlmal			rcal			rtoe			rmt5			lth1			lth2			lth4			lth3			llfc			lmfc			llmal			lcal			lmt5			lsh1			lsh2			lsh3			lsh4			ltoe			SBIKE			LBIKE			RBIKE			
		X1	Y1	Z1	X2	Y2	Z2	X3	Y3	Z3	X4	Y4	Z4	X5	Y5	Z5	X6	Y6	Z6	X7	Y7	Z7	X8	Y8	Z8	X9	Y9	Z9	X10	Y10	Z10	X11	Y11	Z11	X12	Y12	Z12	X13	Y13	Z13	X14	Y14	Z14	X15	Y15	Z15	X16	Y16	Z16	X17	Y17	Z17	X18	Y18	Z18	X19	Y19	Z19	X20	Y20	Z20	X21	Y21	Z21	X22	Y22	Z22	X23	Y23	Z23	X24	Y24	Z24	X25	Y25	Z25	X26	Y26	Z26	X27	Y27	Z27	X28	Y28	Z28	X29	Y29	Z29	X30	Y30	Z30	X31	Y31	Z31	X32	Y32	Z32	X33	Y33	Z33	X34	Y34	Z34	X35	Y35	Z35	X36	Y36	Z36	X37	Y37	Z37	X38	Y38	Z38	X39	Y39	Z39	X40	Y40	Z40	X41	Y41	Z41	X42	Y42	Z42	X43	Y43	Z43	X44	Y44	Z44	X45	Y45	Z45	X46	Y46	Z46	X47	Y47	Z47	X48	Y48	Z48	
750	3.7500	477.208792	1344.704289	-67.134195	521.196887	1329.626140	-343.505870	443.944472	1426.918975	-215.893813	425.562687	1239.944045	-216.163826	528.198938	1105.348479	55.461963	749.986891	971.619606	-70.664336	588.581404	1174.518027	-591.185284	776.682435	960.377074	-463.452296	-132.313543	1204.815278	-292.551205	91.857675	1209.738458	-486.835310	74.874792	1221.116793	-79.621952	119.894492	1136.778765	-466.402625	104.315883	1167.466728	-128.166506	-87.446683	1283.757798	-247.518462	-88.586970	1268.497894	-336.446999	46.860871	1102.312656	-61.939532	0.847428	1064.065776	-487.317107	180.505262	1039.112025	-67.163411	268.210570	1025.410907	-77.520006	336.135525	970.524128	-89.767924	281.467530	1058.048731	-89.766199	434.118997	915.638748	-107.557378	433.666425	891.718571	-236.946300	395.423646	757.708202	-86.814422	387.654854	670.701702	-100.522833	341.129209	597.213037	-96.120749	408.254950	665.551983	-134.453224	283.960287	471.432837	-100.329575	215.229359	448.934275	-142.330260	501.596190	427.959447	-154.022492	436.934518	397.723447	-80.490632	114.277376	960.731723	-500.222533	187.332365	916.502723	-493.849334	214.206140	940.794186	-487.807888	230.061164	837.344671	-484.530943	309.583653	731.057578	-456.206303	319.791308	731.845097	-328.188716	32.975466	404.745563	-418.011150	-33.992450	393.617132	-378.907050	113.699845	248.889969	-448.468955	234.490871	631.771451	-470.329022	201.024648	555.769052	-448.829350	131.976984	500.721743	-443.972696	225.075740	542.778508	-421.785278	208.853950	218.077774	-385.953376	-216.156750	952.043496	-259.556564	-17.790606	80.505477	-461.233201	-17.902368	80.967876	-62.377648	
751	3.7550	477.516059	1345.192346	-67.588588	521.564323	1328.070658	-342.674474	443.952578	1426.280084	-215.992792	425.748540	1239.250191	-215.422200	528.171086	1106.220184	55.710167	748.849413	971.115099	-71.369537	588.842967	1174.862414	-590.964973	775.508418	960.047980	-463.042982	-132.638431	1203.273555	-293.464266	91.873592	1208.066895	-486.886414	74.582221	1219.667661	-79.526006	119.679255	1135.250711	-466.325641	105.067077	1165.542569	-127.129748	-87.887912	1282.003438	-248.605767	-88.509793	1266.760290	-337.277337	47.429140	1099.635480	-62.591891	2.226441	1062.993154	-487.278871	180.517114	1034.231334	-67.468450	267.846947	1018.790785	-78.016787	334.634406	962.364049	-90.524432	282.108397	1051.312324	-89.647579	431.205301	905.290150	-108.113695	430.437817	881.928607	-236.836018	393.027779	747.784370	-86.974788	386.392831	660.571960	-100.552908	340.933879	586.469165	-95.334831	407.100103	655.702280	-134.569013	285.890112	460.523699	-100.335311	217.077167	437.165559	-142.155817	504.028829	420.419213	-153.831177	439.902383	389.192677	-80.395859	117.063780	962.077018	-499.721278	190.590612	918.546484	-492.646175	217.142975	943.113368	-486.330402	234.180096	839.882731	-483.317124	313.587360	734.361848	-455.053073	322.250190	734.929454	-327.001054	31.221616	414.005083	-416.949655	-36.019041	403.315146	-378.256618	110.529858	257.621410	-448.271265	237.015272	636.470148	-469.205992	202.041184	561.174592	-447.513004	132.040969	507.454168	-442.954061	225.880257	547.666866	-420.548841	205.265628	225.597754	-385.416187	-216.127619	952.026455	-259.471650	-17.789147	80.487803	-461.212278	-17.906835	80.933960	-62.349847	
752	3.7600	478.008293	1345.857256	-68.086110	521.971679	1327.000701	-342.111182	443.948892	1425.976065	-216.294422	426.121463	1238.874819	-214.963729	528.423623	1107.147851	56.150703	747.826855	970.746237	-71.784386	588.956422	1174.927915	-590.802808	774.459202	959.703783	-462.570877	-133.430350	1202.057735	-293.676543	91.986835	1206.585347	-486.916130	74.278204	1218.449522	-79.384119	119.532935	1133.992426	-466.037682	105.900780	1163.626448	-125.602681	-88.423807	1280.504298	-249.418267	-88.412595	1265.207173	-338.025274	48.139866	1096.870512	-63.038414	3.515773	1062.083230	-487.105369	180.606786	1029.222665	-67.894007	267.455408	1012.069779	-78.299302	332.957800	954.244661	-91.233135	282.599266	1044.085306	-89.354889	428.127713	895.321871	-108.897442	427.404325	870.953595	-234.775656	390.192807	738.311316	-87.072531	385.206143	650.915437	-100.614211	340.549072	576.178155	-94.996703	405.704090	646.290833	-134.429872	287.453102	449.572558	-100.343847	218.938752	425.277481	-142.054281	506.173447	412.649861	-153.628623	442.460607	380.356372	-80.395988	119.575925	963.233935	-498.873098	193.597210	920.675555	-491.500864	219.835038	945.601816	-484.954378	238.139646	842.491635	-482.356141	317.545830	737.719288	-453.738019	324.918592	738.130359	-325.786366	29.807071	423.078518	-415.734456	-37.763040	412.981190	-377.460658	107.835321	266.645403	-448.118763	239.332934	641.363795	-468.064354	203.029000	566.585269	-446.423916	132.058608	514.046640	-441.749431	226.543600	552.328336	-418.805029	202.050972	233.477729	-384.960051	-216.082952	951.998875	-259.345382	-17.777568	80.472424	-461.229295	-17.881185	80.906770	-62.336169	
753	3.7650	478.659382	1346.763839	-68.980940	522.286588	1326.260166	-341.844432	444.009536	1425.892638	-216.734680	426.543660	1238.724064	-214.715384	528.742407	1108.019551	56.468017	746.859363	970.377502	-72.003012	588.933806	1174.800455	-590.701969	773.486556	959.340040	-461.908319	-132.803145	1200.735295	-294.576627	92.062275	1205.118650	-486.462263	73.976051	1217.488115	-79.272685	119.439811	1132.984245	-465.436646	106.836262	1161.838542	-124.028283	-88.739099	1279.252146	-249.971616	-88.329688	1263.970403	-338.613834	48.860240	1094.088313	-63.384317	4.654035	1061.326274	-486.892198	180.613458	1024.271592	-68.042310	267.060874	1005.180027	-78.541856	331.268230	945.925480	-91.949526	282.894474	1037.029342	-89.264900	424.971640	885.328496	-109.542828	423.814553	860.645369	-234.297395	387.124790	729.167346	-87.086617	383.500832	641.697881	-100.462780	340.103856	566.365962	-94.819202	404.228584	637.351446	-134.162838	288.678777	438.574618	-100.197870	219.995648	414.237948	-141.084636	507.714224	404.745870	-153.672639	444.574627	371.444563	-80.379808	121.740646	964.460921	-497.953626	196.330644	922.920919	-490.438264	222.248778	948.142698	-483.701314	241.895371	845.351359	-481.564773	321.402036	741.310461	-452.396828	327.907975	741.397149	-324.616585	28.945893	431.973622	-414.214270	-39.091962	422.751132	-376.659945	105.413406	275.531012	-447.953886	241.361966	646.340995	-466.622708	203.994812	572.214297	-445.397521	132.136228	520.807792	-440.727677	227.296137	557.483705	-417.856960	199.317208	241.453634	-384.659589	-216.063825	951.986761	-259.300660	-17.767271	80.450109	-461.191469	-17.895315	80.878556	-62.316291	
